<mxfile host="app.diagrams.net" modified="2023-04-18T01:25:20.660Z" agent="Mozilla/5.0 (Windows NT 10.0; Win64; x64) AppleWebKit/537.36 (KHTML, like Gecko) Chrome/111.0.0.0 Safari/537.36 OPR/97.0.0.0" etag="9euSa3HlabZrQG2J6HLr" version="21.1.8" type="github">
  <diagram id="C5RBs43oDa-KdzZeNtuy" name="Page-1">
    <mxGraphModel dx="1249" dy="542" grid="1" gridSize="10" guides="1" tooltips="1" connect="1" arrows="1" fold="1" page="1" pageScale="1" pageWidth="827" pageHeight="1169" math="0" shadow="0">
      <root>
        <mxCell id="WIyWlLk6GJQsqaUBKTNV-0" />
        <mxCell id="WIyWlLk6GJQsqaUBKTNV-1" parent="WIyWlLk6GJQsqaUBKTNV-0" />
        <mxCell id="sREbu91Ufmf7mapNDOHT-16" style="edgeStyle=orthogonalEdgeStyle;rounded=0;orthogonalLoop=1;jettySize=auto;html=1;entryX=0;entryY=0.5;entryDx=0;entryDy=0;" parent="WIyWlLk6GJQsqaUBKTNV-1" target="sREbu91Ufmf7mapNDOHT-10" edge="1">
          <mxGeometry relative="1" as="geometry">
            <mxPoint x="890" y="500" as="sourcePoint" />
          </mxGeometry>
        </mxCell>
        <mxCell id="sREbu91Ufmf7mapNDOHT-18" value="" style="edgeStyle=orthogonalEdgeStyle;rounded=0;orthogonalLoop=1;jettySize=auto;html=1;" parent="WIyWlLk6GJQsqaUBKTNV-1" target="sREbu91Ufmf7mapNDOHT-10" edge="1">
          <mxGeometry relative="1" as="geometry">
            <mxPoint x="1160" y="500" as="sourcePoint" />
          </mxGeometry>
        </mxCell>
        <mxCell id="sREbu91Ufmf7mapNDOHT-15" style="edgeStyle=orthogonalEdgeStyle;rounded=0;orthogonalLoop=1;jettySize=auto;html=1;entryX=0;entryY=0.5;entryDx=0;entryDy=0;" parent="WIyWlLk6GJQsqaUBKTNV-1" source="sREbu91Ufmf7mapNDOHT-7" target="sREbu91Ufmf7mapNDOHT-41" edge="1">
          <mxGeometry relative="1" as="geometry">
            <mxPoint x="980" y="265" as="targetPoint" />
          </mxGeometry>
        </mxCell>
        <mxCell id="sREbu91Ufmf7mapNDOHT-7" value="PROVEEDOR" style="rounded=1;whiteSpace=wrap;html=1;fontSize=12;glass=0;strokeWidth=1;shadow=0;" parent="WIyWlLk6GJQsqaUBKTNV-1" vertex="1">
          <mxGeometry x="510" y="215" width="120" height="40" as="geometry" />
        </mxCell>
        <mxCell id="sREbu91Ufmf7mapNDOHT-42" style="edgeStyle=orthogonalEdgeStyle;rounded=0;orthogonalLoop=1;jettySize=auto;html=1;entryX=0.5;entryY=0;entryDx=0;entryDy=0;" parent="WIyWlLk6GJQsqaUBKTNV-1" source="sREbu91Ufmf7mapNDOHT-8" target="sREbu91Ufmf7mapNDOHT-12" edge="1">
          <mxGeometry relative="1" as="geometry" />
        </mxCell>
        <mxCell id="sREbu91Ufmf7mapNDOHT-50" style="edgeStyle=orthogonalEdgeStyle;rounded=0;orthogonalLoop=1;jettySize=auto;html=1;entryX=0.5;entryY=1;entryDx=0;entryDy=0;" parent="WIyWlLk6GJQsqaUBKTNV-1" source="sREbu91Ufmf7mapNDOHT-8" target="sREbu91Ufmf7mapNDOHT-13" edge="1">
          <mxGeometry relative="1" as="geometry" />
        </mxCell>
        <mxCell id="sREbu91Ufmf7mapNDOHT-8" value="PRODUCTO" style="rounded=1;whiteSpace=wrap;html=1;fontSize=12;glass=0;strokeWidth=1;shadow=0;" parent="WIyWlLk6GJQsqaUBKTNV-1" vertex="1">
          <mxGeometry x="1160" y="215" width="120" height="40" as="geometry" />
        </mxCell>
        <mxCell id="sREbu91Ufmf7mapNDOHT-54" style="edgeStyle=orthogonalEdgeStyle;rounded=0;orthogonalLoop=1;jettySize=auto;html=1;entryX=0;entryY=0.5;entryDx=0;entryDy=0;" parent="WIyWlLk6GJQsqaUBKTNV-1" source="sREbu91Ufmf7mapNDOHT-9" target="sREbu91Ufmf7mapNDOHT-13" edge="1">
          <mxGeometry relative="1" as="geometry" />
        </mxCell>
        <mxCell id="sREbu91Ufmf7mapNDOHT-9" value="CATEGORÍA" style="rounded=1;whiteSpace=wrap;html=1;fontSize=12;glass=0;strokeWidth=1;shadow=0;" parent="WIyWlLk6GJQsqaUBKTNV-1" vertex="1">
          <mxGeometry x="875" y="100" width="120" height="40" as="geometry" />
        </mxCell>
        <mxCell id="sREbu91Ufmf7mapNDOHT-17" style="edgeStyle=orthogonalEdgeStyle;rounded=0;orthogonalLoop=1;jettySize=auto;html=1;entryX=0;entryY=0.5;entryDx=0;entryDy=0;" parent="WIyWlLk6GJQsqaUBKTNV-1" source="sREbu91Ufmf7mapNDOHT-10" edge="1">
          <mxGeometry relative="1" as="geometry">
            <mxPoint x="1160" y="500" as="targetPoint" />
          </mxGeometry>
        </mxCell>
        <mxCell id="sREbu91Ufmf7mapNDOHT-19" style="edgeStyle=orthogonalEdgeStyle;rounded=0;orthogonalLoop=1;jettySize=auto;html=1;entryX=1;entryY=0.5;entryDx=0;entryDy=0;" parent="WIyWlLk6GJQsqaUBKTNV-1" source="sREbu91Ufmf7mapNDOHT-10" edge="1">
          <mxGeometry relative="1" as="geometry">
            <mxPoint x="890" y="500" as="targetPoint" />
          </mxGeometry>
        </mxCell>
        <mxCell id="sREbu91Ufmf7mapNDOHT-10" value="ATENDER" style="rhombus;whiteSpace=wrap;html=1;" parent="WIyWlLk6GJQsqaUBKTNV-1" vertex="1">
          <mxGeometry x="970" y="470" width="110" height="60" as="geometry" />
        </mxCell>
        <mxCell id="sREbu91Ufmf7mapNDOHT-12" value="COMPRA" style="rhombus;whiteSpace=wrap;html=1;" parent="WIyWlLk6GJQsqaUBKTNV-1" vertex="1">
          <mxGeometry x="1165" y="310" width="110" height="60" as="geometry" />
        </mxCell>
        <mxCell id="sREbu91Ufmf7mapNDOHT-51" style="edgeStyle=orthogonalEdgeStyle;rounded=0;orthogonalLoop=1;jettySize=auto;html=1;entryX=0.5;entryY=0;entryDx=0;entryDy=0;" parent="WIyWlLk6GJQsqaUBKTNV-1" source="sREbu91Ufmf7mapNDOHT-13" target="sREbu91Ufmf7mapNDOHT-8" edge="1">
          <mxGeometry relative="1" as="geometry" />
        </mxCell>
        <mxCell id="sREbu91Ufmf7mapNDOHT-52" style="edgeStyle=orthogonalEdgeStyle;rounded=0;orthogonalLoop=1;jettySize=auto;html=1;exitX=0;exitY=0.5;exitDx=0;exitDy=0;entryX=1;entryY=0.5;entryDx=0;entryDy=0;" parent="WIyWlLk6GJQsqaUBKTNV-1" source="sREbu91Ufmf7mapNDOHT-13" target="sREbu91Ufmf7mapNDOHT-9" edge="1">
          <mxGeometry relative="1" as="geometry" />
        </mxCell>
        <mxCell id="sREbu91Ufmf7mapNDOHT-13" value="PERTENECE" style="rhombus;whiteSpace=wrap;html=1;" parent="WIyWlLk6GJQsqaUBKTNV-1" vertex="1">
          <mxGeometry x="1165" y="90" width="110" height="60" as="geometry" />
        </mxCell>
        <mxCell id="sREbu91Ufmf7mapNDOHT-23" style="edgeStyle=orthogonalEdgeStyle;rounded=0;orthogonalLoop=1;jettySize=auto;html=1;exitX=0.5;exitY=1;exitDx=0;exitDy=0;" parent="WIyWlLk6GJQsqaUBKTNV-1" edge="1">
          <mxGeometry relative="1" as="geometry">
            <mxPoint x="830" y="520" as="sourcePoint" />
            <mxPoint x="830" y="520" as="targetPoint" />
          </mxGeometry>
        </mxCell>
        <mxCell id="sREbu91Ufmf7mapNDOHT-37" value="" style="edgeStyle=orthogonalEdgeStyle;rounded=0;orthogonalLoop=1;jettySize=auto;html=1;" parent="WIyWlLk6GJQsqaUBKTNV-1" source="sREbu91Ufmf7mapNDOHT-33" target="sREbu91Ufmf7mapNDOHT-36" edge="1">
          <mxGeometry relative="1" as="geometry" />
        </mxCell>
        <mxCell id="sREbu91Ufmf7mapNDOHT-57" style="edgeStyle=orthogonalEdgeStyle;rounded=0;orthogonalLoop=1;jettySize=auto;html=1;entryX=0;entryY=0.5;entryDx=0;entryDy=0;" parent="WIyWlLk6GJQsqaUBKTNV-1" source="sREbu91Ufmf7mapNDOHT-33" target="sREbu91Ufmf7mapNDOHT-12" edge="1">
          <mxGeometry relative="1" as="geometry">
            <Array as="points">
              <mxPoint x="830" y="340" />
            </Array>
          </mxGeometry>
        </mxCell>
        <mxCell id="sREbu91Ufmf7mapNDOHT-33" value="EMPLEADO" style="rounded=1;whiteSpace=wrap;html=1;fontSize=12;glass=0;strokeWidth=1;shadow=0;" parent="WIyWlLk6GJQsqaUBKTNV-1" vertex="1">
          <mxGeometry x="770" y="480" width="120" height="40" as="geometry" />
        </mxCell>
        <mxCell id="sREbu91Ufmf7mapNDOHT-58" style="edgeStyle=orthogonalEdgeStyle;rounded=0;orthogonalLoop=1;jettySize=auto;html=1;entryX=0.5;entryY=1;entryDx=0;entryDy=0;" parent="WIyWlLk6GJQsqaUBKTNV-1" source="sREbu91Ufmf7mapNDOHT-34" target="sREbu91Ufmf7mapNDOHT-12" edge="1">
          <mxGeometry relative="1" as="geometry" />
        </mxCell>
        <mxCell id="sREbu91Ufmf7mapNDOHT-34" value="CLIENTE" style="rounded=1;whiteSpace=wrap;html=1;fontSize=12;glass=0;strokeWidth=1;shadow=0;" parent="WIyWlLk6GJQsqaUBKTNV-1" vertex="1">
          <mxGeometry x="1160" y="480" width="120" height="40" as="geometry" />
        </mxCell>
        <mxCell id="sREbu91Ufmf7mapNDOHT-38" style="edgeStyle=orthogonalEdgeStyle;rounded=0;orthogonalLoop=1;jettySize=auto;html=1;entryX=0.5;entryY=0;entryDx=0;entryDy=0;" parent="WIyWlLk6GJQsqaUBKTNV-1" source="sREbu91Ufmf7mapNDOHT-35" target="sREbu91Ufmf7mapNDOHT-36" edge="1">
          <mxGeometry relative="1" as="geometry" />
        </mxCell>
        <mxCell id="sREbu91Ufmf7mapNDOHT-35" value="SUCURSAL" style="rounded=1;whiteSpace=wrap;html=1;fontSize=12;glass=0;strokeWidth=1;shadow=0;" parent="WIyWlLk6GJQsqaUBKTNV-1" vertex="1">
          <mxGeometry x="575" y="320" width="120" height="40" as="geometry" />
        </mxCell>
        <mxCell id="sREbu91Ufmf7mapNDOHT-47" style="edgeStyle=orthogonalEdgeStyle;rounded=0;orthogonalLoop=1;jettySize=auto;html=1;exitX=0;exitY=0.5;exitDx=0;exitDy=0;entryX=0;entryY=0.5;entryDx=0;entryDy=0;" parent="WIyWlLk6GJQsqaUBKTNV-1" source="sREbu91Ufmf7mapNDOHT-36" target="sREbu91Ufmf7mapNDOHT-7" edge="1">
          <mxGeometry relative="1" as="geometry">
            <Array as="points">
              <mxPoint x="480" y="500" />
              <mxPoint x="480" y="235" />
            </Array>
          </mxGeometry>
        </mxCell>
        <mxCell id="sREbu91Ufmf7mapNDOHT-36" value="TIENE" style="rhombus;whiteSpace=wrap;html=1;" parent="WIyWlLk6GJQsqaUBKTNV-1" vertex="1">
          <mxGeometry x="580" y="470" width="110" height="60" as="geometry" />
        </mxCell>
        <mxCell id="30RQTBCr-l4doeMsMKMT-1" style="edgeStyle=orthogonalEdgeStyle;rounded=0;orthogonalLoop=1;jettySize=auto;html=1;exitX=1;exitY=0.5;exitDx=0;exitDy=0;" edge="1" parent="WIyWlLk6GJQsqaUBKTNV-1" source="sREbu91Ufmf7mapNDOHT-41" target="30RQTBCr-l4doeMsMKMT-0">
          <mxGeometry relative="1" as="geometry" />
        </mxCell>
        <mxCell id="sREbu91Ufmf7mapNDOHT-41" value="SUMINISTRAR" style="rhombus;whiteSpace=wrap;html=1;" parent="WIyWlLk6GJQsqaUBKTNV-1" vertex="1">
          <mxGeometry x="710" y="205" width="110" height="60" as="geometry" />
        </mxCell>
        <mxCell id="30RQTBCr-l4doeMsMKMT-3" value="" style="edgeStyle=orthogonalEdgeStyle;rounded=0;orthogonalLoop=1;jettySize=auto;html=1;" edge="1" parent="WIyWlLk6GJQsqaUBKTNV-1" source="30RQTBCr-l4doeMsMKMT-0" target="sREbu91Ufmf7mapNDOHT-8">
          <mxGeometry relative="1" as="geometry" />
        </mxCell>
        <mxCell id="30RQTBCr-l4doeMsMKMT-0" value="INVENTARIO" style="rounded=1;whiteSpace=wrap;html=1;fontSize=12;glass=0;strokeWidth=1;shadow=0;" vertex="1" parent="WIyWlLk6GJQsqaUBKTNV-1">
          <mxGeometry x="920" y="215" width="120" height="40" as="geometry" />
        </mxCell>
      </root>
    </mxGraphModel>
  </diagram>
</mxfile>
